<?xml version="1.0" encoding="UTF-8" standalone="no" ?>
<!DOCTYPE svg PUBLIC "-//W3C//DTD SVG 1.1//EN" "http://www.w3.org/Graphics/SVG/1.1/DTD/svg11.dtd">
<svg xmlns="http://www.w3.org/2000/svg" xmlns:xlink="http://www.w3.org/1999/xlink" version="1.1" width="356.9553" height="258" xml:space="preserve">
<desc>Created with Fabric.js 1.6.0-rc.1</desc>
<defs></defs>
<g style="stroke: none; stroke-width: 1; stroke-dasharray: none; stroke-linecap: butt; stroke-linejoin: miter; stroke-miterlimit: 10; fill: none; fill-rule: nonzero; opacity: 1;" transform="translate(10 10) scale(1.87 1.87)" >
  <path d="M 88.993 14.956 v 0.008 h -0.003 v -0.008 C 76.714 14.92 65.578 19.87 57.5 27.9 c -8.08 8.031 -13.096 19.138 -13.133 31.415 h 0.008 v 0.003 h -0.008 C 44.33 71.595 49.28 82.731 57.31 90.81 c 8.031 8.08 19.138 13.096 31.415 13.133 v -0.008 h 0.003 v 0.008 c 12.277 0.036 23.412 -4.913 31.491 -12.944 c 8.08 -8.031 13.096 -19.138 13.132 -31.415 h -0.007 v -0.003 h 0.007 c 0.037 -12.276 -4.913 -23.412 -12.943 -31.491 c -8.031 -8.08 -19.138 -13.096 -31.415 -13.133 z" style="stroke: none; stroke-width: 1; stroke-dasharray: none; stroke-linecap: butt; stroke-linejoin: miter; stroke-miterlimit: 10; fill: #fff; fill-rule: evenodd; opacity: 1;" transform="" stroke-linecap="round" />
  <path d="M 89.004 11.166 v 0.007 c 13.336 0.04 25.39 5.48 34.097 14.238 c 8.707 8.76 14.073 20.845 14.034 34.18 h 0.007 v 0.002 h -0.007 c -0.04 13.336 -5.48 25.39 -14.238 34.098 c -8.76 8.706 -20.845 14.073 -34.18 14.033 v 0.008 h -0.002 v -0.008 c -13.336 -0.04 -25.39 -5.478 -34.097 -14.238 c -8.707 -8.759 -14.073 -20.845 -14.034 -34.18 h -0.008 v -0.002 h 0.008 c 0.04 -13.336 5.479 -25.39 14.238 -34.097 c 8.76 -8.707 20.845 -14.073 34.18 -14.034 v -0.007 h 0.002 z m -0.01 3.79 v 0.008 h -0.004 v -0.008 C 76.714 14.92 65.578 19.87 57.5 27.9 c -8.08 8.031 -13.097 19.138 -13.133 31.415 h 0.007 v 0.003 h -0.007 C 44.33 71.595 49.28 82.73 57.31 90.81 c 8.03 8.08 19.137 13.096 31.415 13.133 v -0.008 h 0.003 v 0.008 c 12.276 0.036 23.412 -4.914 31.49 -12.944 c 8.08 -8.031 13.096 -19.138 13.133 -31.415 h -0.008 v -0.003 h 0.008 c 0.036 -12.276 -4.914 -23.413 -12.944 -31.491 c -8.031 -8.08 -19.138 -13.096 -31.415 -13.133 z" style="stroke: none; stroke-width: 1; stroke-dasharray: none; stroke-linecap: butt; stroke-linejoin: miter; stroke-miterlimit: 10; fill: rgb(0,0,0); fill-rule: nonzero; opacity: 1;" transform="" stroke-linecap="round" />
  <path d="M 88.948 29.994 v 0.004 h -0.003 v -0.004 c -8.128 -0.024 -15.5 3.252 -20.848 8.568 c -5.348 5.316 -8.668 12.67 -8.693 20.798 h 0.004 v 0.003 h -0.004 c -0.023 8.128 3.253 15.5 8.568 20.848 c 5.316 5.348 12.67 8.669 20.798 8.693 V 88.9 h 0.003 v 0.004 c 8.128 0.024 15.5 -3.253 20.848 -8.569 c 5.348 -5.316 8.668 -12.669 8.693 -20.797 h -0.004 v -0.003 h 0.004 c 0.024 -8.128 -3.253 -15.5 -8.568 -20.848 c -5.316 -5.348 -12.67 -8.669 -20.798 -8.693 z" style="stroke: none; stroke-width: 1; stroke-dasharray: none; stroke-linecap: butt; stroke-linejoin: miter; stroke-miterlimit: 10; fill: #fff; fill-rule: evenodd; opacity: 1;" transform="" stroke-linecap="round" />
  <path d="M 88.953 28.099 v 0.003 c 8.658 0.027 16.485 3.559 22.14 9.247 c 5.653 5.688 9.138 13.535 9.112 22.192 h 0.004 v 0.002 h -0.004 c -0.026 8.658 -3.558 16.485 -9.246 22.139 c -5.687 5.654 -13.534 9.139 -22.191 9.113 v 0.004 h -0.003 v -0.004 c -8.658 -0.026 -16.485 -3.558 -22.14 -9.246 c -5.653 -5.688 -9.137 -13.535 -9.112 -22.192 h -0.004 v -0.002 h 0.004 c 0.026 -8.658 3.558 -16.485 9.246 -22.14 c 5.687 -5.653 13.535 -9.138 22.192 -9.113 V 28.1 h 0.002 z m -0.005 1.895 v 0.004 h -0.003 v -0.004 c -8.128 -0.024 -15.5 3.253 -20.848 8.568 c -5.348 5.316 -8.668 12.67 -8.692 20.798 h 0.003 v 0.003 h -0.004 c -0.023 8.128 3.253 15.5 8.568 20.848 c 5.316 5.348 12.67 8.669 20.798 8.693 V 88.9 h 0.003 v 0.004 c 8.128 0.024 15.5 -3.253 20.848 -8.568 c 5.348 -5.317 8.668 -12.67 8.693 -20.798 h -0.004 v -0.003 h 0.004 c 0.024 -8.128 -3.253 -15.5 -8.568 -20.848 c -5.316 -5.348 -12.67 -8.669 -20.798 -8.693 z" style="stroke: none; stroke-width: 1; stroke-dasharray: none; stroke-linecap: butt; stroke-linejoin: miter; stroke-miterlimit: 10; fill: rgb(0,0,0); fill-rule: nonzero; opacity: 1;" transform="" stroke-linecap="round" />
  <path d="M 90.022 97.721 c 14.31 -1.822 30.431 -10.042 38.624 -24.957 c -4.736 11.582 -14.182 26.284 -38.636 29.032 c 0.004 -1.358 -1.335 -3.903 0.012 -4.075 z M 31.01 38.52 l -0.174 57.338 c -0.002 0.892 -1.56 1.615 -3.466 1.61 c -1.904 -0.006 -3.46 -0.74 -3.457 -1.628 l 0.17 -57.34 c -3.247 -1.549 -5.525 -5.199 -5.511 -9.447 c 0.011 -3.987 2.035 -7.434 4.976 -9.107 l -0.037 12.633 l 2.001 0.006 l 0.042 -13.46 c 0.284 -0.074 0.575 -0.133 0.87 -0.177 l -0.04 13.64 l 1.999 0.007 l 0.04 -13.684 c 0.236 0.024 0.468 0.059 0.698 0.104 l -0.042 13.582 l 2.002 0.006 l 0.038 -12.917 c 3.219 1.563 5.47 5.196 5.459 9.42 c -0.014 4.248 -2.311 7.883 -5.568 9.414 z M 146.589 53.037 l -0.13 43.168 c -0.002 0.89 1.554 1.623 3.459 1.629 c 1.904 0.006 3.463 -0.718 3.467 -1.609 c 0.11 -24.613 -0.106 -49.258 0.22 -73.867 c 0.349 -0.691 -6.59 4.136 -8.34 10.363 c -1.05 7.697 0.56 16.352 1.324 20.316 z M 173.617 38.932 l -0.17 57.338 c -0.004 0.89 -1.564 1.614 -3.468 1.609 c -1.905 -0.006 -3.46 -0.74 -3.458 -1.63 l 0.171 -57.337 c -3.248 -1.55 -5.525 -5.2 -5.512 -9.448 c 0.017 -5.64 4.062 -10.203 9.033 -10.188 c 4.972 0.015 8.99 4.601 8.973 10.242 c -0.013 4.248 -2.311 7.884 -5.569 9.414 z" style="stroke: none; stroke-width: 1; stroke-dasharray: none; stroke-linecap: butt; stroke-linejoin: miter; stroke-miterlimit: 10; fill: rgb(0,0,0); fill-rule: evenodd; opacity: 1;" transform="" stroke-linecap="round" />
</g>
<g style="stroke: none; stroke-width: 1; stroke-dasharray: none; stroke-linecap: butt; stroke-linejoin: miter; stroke-miterlimit: 10; fill: none; fill-rule: nonzero; opacity: 1;" transform="translate(56.00999999999999 213) scale(2.23 0.28)" >
  <path d="M 6 124 h 112 c 3.3 0 6 -2.7 6 -6 V 6 c 0 -3.3 -2.7 -6 -6 -6 H 6 C 2.7 0 0 2.7 0 6 v 112 C 0 121.3 2.7 124 6 124 z" style="stroke: none; stroke-width: 1; stroke-dasharray: none; stroke-linecap: butt; stroke-linejoin: miter; stroke-miterlimit: 10; fill: rgb(0,0,0); fill-rule: nonzero; opacity: 1;" transform="" stroke-linecap="round" />
</g>
<g style="stroke: none; stroke-width: 1; stroke-dasharray: none; stroke-linecap: butt; stroke-linejoin: miter; stroke-miterlimit: 10; fill: none; fill-rule: nonzero; opacity: 1;" transform="translate(121.35000000000004 65.63) scale(0.11 0.12)" >
  <path d="M 328.478 41.728 c -65.694 0.3 -132.86 31.024 -169.343 86.688 c -6.936 10.285 -11.734 21.751 -16.75 33.062 c -48.956 -3.901 -99.122 13.93 -134.875 47.125 c -20.693 19.91 -33.799 49.94 -26.594 78.781 c 2.592 12.514 9.667 23.626 13.625 35.625 c 1.636 11.092 -7.86 19.358 -16.844 23.782 c -22.91 13.466 -51.57 20.79 -66.75 44.343 c -5.932 10.016 -6.612 22.162 -11.66 32.637 c -10.19 31.225 -1.038 66.445 18.875 91.858 c 25.33 34.586 64.302 58.152 106.223 66.912 c 21.375 7.116 33.34 27.89 41.687 47.437 c 12.95 30.382 21.593 65.017 47.906 87 c 9.79 8.199 22.335 12.028 31.821 20.572 c 64.456 45.734 151.141 62.1 226.742 36.616 c 44.845 10.938 74.541 50.394 115.781 68.562 c 16.847 7.486 35.797 10.958 54.185 8.734 c 62.74 4.743 125.993 -24.198 164.552 -73.406 c 27.898 -34.599 43.795 -78.742 44.013 -123.234 c 4.563 -35.388 -9.028 -69.445 -16.906 -103.219 c -4.274 -18.983 -5.848 -41.848 8.125 -57.312 c 6.914 -8.89 17.275 -13.467 26.095 -19.91 c 23.161 -21.903 35.33 -53.99 36.917 -85.652 c 2.86 -63.763 -29.763 -126.336 -80.575 -163.563 c -52.027 -37.9 -117.178 -56.16 -181.437 -54.563 c -21.648 -56.178 -72.657 -96.848 -128.75 -115.687 c -27.62 -9.458 -56.861 -13.805 -86.063 -13.188 z" style="stroke: none; stroke-width: 0.3; stroke-dasharray: none; stroke-linecap: round; stroke-linejoin: miter; stroke-miterlimit: 10; fill: rgb(0,0,0); fill-rule: nonzero; opacity: 1;" transform=" matrix(1 0 0 1 125.846 -17.427) " stroke-linecap="round" />
  <path d="M 447.487 27.953 c -0.003 -0.335 1.733 -0.685 5.138 -1.046 c 3.46 -0.368 8.765 -0.598 15.607 -0.498 c 6.935 0.103 15.796 0.811 25.944 2.187 c 10.264 1.391 22.64 3.982 35.568 8.14 c 13.053 4.199 28.003 10.228 42.86 18.141 c 14.947 7.962 31.547 19.436 45.786 33.379 c 14.313 14.017 28.826 33.069 38.656 53.737 c 9.859 20.728 34.528 7.15 59.865 11.145 c 25.358 4 53.748 11.425 79.375 23.196 c 25.599 11.76 53.489 29.436 74.72 51.363 c 21.21 21.904 39.634 54.194 48.24 85.703 c 8.595 31.465 9.284 73.685 -4.74 105.33 c -13.943 31.466 -56.266 43.46 -61.583 79.29 c -5.287 35.623 14.935 68.034 19.595 105.38 c 4.619 37.006 -2.406 82.525 -19.283 117.375 c -16.696 34.475 -47.914 69.832 -82.11 89.692 c -33.693 19.568 -79.074 24.894 -119.043 26.836 c -39.35 1.912 -80.406 -28.038 -113.051 -51.626 c -32.646 -23.588 -64.152 -17.91 -103.432 -14.883 c -39.92 3.077 -85.029 -4.394 -121.172 -18.997 c -36.628 -14.8 -78.735 -35.99 -101.726 -66.579 c -23.251 -30.937 -26.924 -72.467 -50.207 -101.574 c -23.507 -29.389 -65.61 -27.265 -94.383 -48.928 C 39.163 512.921 11.47 475.13 8.41 440.84 c -3.077 -34.473 15.825 -79.634 43.964 -96.122 c 28.22 -16.535 66.254 -21.625 53.365 -49.295 c -12.9 -27.695 -13.012 -68.41 3.17 -91.5 c 16.165 -23.065 43.734 -40.547 67.547 -50.06 c 23.789 -9.503 51.163 -14.619 74.06 -13.46 c 22.862 1.155 19.87 -24.675 31.94 -40.67 c 12.003 -15.904 27.54 -29.206 41.532 -38.744 c 13.912 -9.483 28.771 -16.424 41.549 -21.408 c 12.661 -4.94 25.032 -7.81 35.212 -9.755 c 10.07 -1.925 19.046 -2.75 25.983 -2.979 c 6.834 -0.225 12.134 -0.141 15.6 0.16 c 3.41 0.296 5.153 0.612 5.156 0.947 c 0.003 0.336 -1.733 0.685 -5.138 1.045 c -3.46 0.367 -8.523 0.932 -15.31 1.805 a 202.35 202.35 0 0 0 -24.986 4.792 c -10.033 2.574 -21.06 5.675 -33.473 11.184 c -12.532 5.562 -25.406 12.09 -38.967 22.061 c -13.645 10.032 -26.37 21.36 -37.911 37.607 c -11.603 16.332 -18.755 47.668 -41.634 47.056 c -22.944 -0.615 -44.43 3.972 -68.057 13.959 c -23.646 9.995 -44.067 22.368 -59.864 45.728 c -15.78 23.334 -13.85 47.28 -0.577 74.763 c 13.259 27.453 -31.578 55.976 -59.564 72.817 C 34.06 377.587 24.7 404.461 28.11 438.905 c 3.39 34.25 23.2 57.58 52.307 79.143 c 28.94 21.438 75.055 22.792 98.741 52.037 c 23.472 28.98 27.732 70.934 51.134 101.784 c 23.15 30.517 55.89 44.36 92.598 59.067 c 36.167 14.49 71.052 20.289 110.946 17.157 c 39.275 -3.084 85.936 -4.53 118.581 19.058 c 32.646 23.589 59.226 49.263 98.579 47.408 c 39.993 -1.885 75.14 -4.129 108.907 -23.608 c 34.219 -19.74 56.623 -45.431 73.455 -79.797 c 17.024 -34.756 22.24 -68.03 17.848 -105.046 c -4.434 -37.373 -24.345 -75.516 -18.781 -111.097 c 5.598 -35.798 49.738 -52.976 63.99 -84.316 c 14.327 -31.506 12.99 -60.823 4.765 -92.384 c -8.25 -31.65 -21.934 -56.325 -42.861 -78.551 c -20.945 -22.246 -43.591 -36.656 -69.015 -48.852 c -25.396 -12.182 -49.385 -19.266 -74.714 -23.265 c -25.303 -3.995 -60.07 0.825 -69.423 -20.106 c -9.339 -20.9 -20.95 -36.773 -34.857 -51.2 c -13.829 -14.345 -27.7 -24.502 -42.352 -32.991 c -14.569 -8.44 -27.887 -14.419 -40.738 -19.211 c -12.734 -4.75 -23.842 -7.673 -34.006 -9.702 c -10.055 -2.007 -18.341 -3.302 -25.24 -4.063 c -6.797 -0.749 -11.865 -1.17 -15.33 -1.47 c -3.411 -0.295 -5.154 -0.61 -5.157 -0.947" style="stroke: none; stroke-width: 0.3; stroke-dasharray: none; stroke-linecap: round; stroke-linejoin: miter; stroke-miterlimit: 10; fill: rgb(0,0,0); fill-rule: nonzero; opacity: 1;" transform="" stroke-linecap="round" />
  <path d="M 448.539 24.43 c -79.022 -0.675 -159.177 44.26 -183.838 120.188 c -76.19 -11.372 -199.61 54.195 -150.632 142.206 c 27.43 54.355 -81.862 44.366 -86.105 103.133 c -36.093 72.586 42.168 148.832 112.318 162.336 c 65.195 17.862 47.725 121.968 115.108 148.083 c 66.09 52.882 158.093 70.925 234.62 44.107 c 62.11 13.037 100.198 86.732 169.747 77.24 c 109.102 9.168 203.777 -82.897 202.78 -190.893 c 11.343 -68.006 -61.448 -143.006 18.197 -182.592 c 67.568 -65.266 34.627 -187.22 -41.195 -241.015 c -52.644 -39.265 -119.368 -56.255 -182.53 -53.949 c -30.061 -84.185 -125.02 -131.197 -208.47 -128.843 z" style="stroke: none; stroke-width: 0.3; stroke-dasharray: none; stroke-linecap: round; stroke-linejoin: miter; stroke-miterlimit: 10; fill: #fffffa; fill-rule: nonzero; opacity: 0;" transform="" stroke-linecap="round" />
  <path d="M -300 372.362 a 182.857 182.857 0 1 1 -365.714 0 a 182.857 182.857 0 1 1 365.714 0 z" style="stroke: none; stroke-width: 0.3; stroke-dasharray: none; stroke-linecap: round; stroke-linejoin: miter; stroke-miterlimit: 10; fill: #c0c0c0; fill-rule: nonzero; opacity: 1;" transform=" matrix(0.90643 0 0 0.78143 936.415 131.827) " stroke-linecap="round" />
  <path d="M 656.487 414.802 a 165.747 142.89 0 1 1 -331.494 0 a 165.747 142.89 0 1 1 331.494 0 z" style="stroke: none; stroke-width: 0.3; stroke-dasharray: none; stroke-linecap: round; stroke-linejoin: miter; stroke-miterlimit: 10; fill: #ffba00; fill-rule: nonzero; opacity: 1;" transform="" stroke-linecap="round" />
  <path d="M 359.853 298.822 c -55.287 0.61 -111.072 29.567 -138.437 78.594 c -25.559 44.998 -15.105 105.623 21.125 141.75 c -21.946 -39.537 -23.407 -90.745 -0.344 -130.219 c 28.897 -52.185 87.538 -83.575 146.466 -85.956 c 4.83 -0.232 9.67 -0.298 14.503 -0.169 c -14.197 -3.05 -28.758 -4.374 -43.313 -4 z" style="stroke: none; stroke-width: 0.3; stroke-dasharray: none; stroke-linecap: round; stroke-linejoin: miter; stroke-miterlimit: 10; fill: #f5f5f5; fill-rule: nonzero; opacity: 1;" transform=" matrix(1 0 0 1 125.846 -17.427) " stroke-linecap="round" />
  <path d="M 724.26 235.634 c 25.77 41.19 49.692 85.92 54.004 135.155 c 3.02 32.204 -7.59 65.598 -30.473 88.502 c -13.114 13.956 -32.976 24.18 -36.469 44.687 c -5.15 30.061 9.66 58.435 13.556 87.676 c 10.188 64.316 -6.823 134.67 -52.712 181.95 c -32.177 33.772 -79.257 51.735 -125.813 49.843 c -59.152 -1.911 -114.27 -28.754 -161.822 -62.12 c -88.223 0.516 -164.737 4.982 -197.021 -10.911 c 54.906 24.26 119.49 29.51 176.531 9.437 c 38.138 7.893 66.368 37.243 98.062 57.625 c 21.085 14.186 46.331 23.616 71.97 19.656 c 61.342 5.74 123.233 -23.843 160.343 -72.125 c 26.38 -33.35 40.818 -75.585 40.47 -118.05 c 6.29 -43 -18.292 -82.558 -19.774 -125.012 c -0.978 -19.545 8.59 -38.679 24.751 -49.611 c 7.082 -5.31 15.89 -8.204 20.928 -15.827 c 29.451 -33.694 34.505 -82.408 23.156 -124.5 c -9.74 -37.177 -30.623 -71.646 -59.937 -96.78 l 0.25 0.405 z" style="stroke: none; stroke-width: 0.3; stroke-dasharray: none; stroke-linecap: round; stroke-linejoin: miter; stroke-miterlimit: 10; fill: #808080; fill-rule: nonzero; opacity: 1;" transform=" matrix(1 0 0 1 125.846 -17.427) " stroke-linecap="round" />
</g>
  <g transform="translate(143.58 230.46) scale(0.62 0.49)">
   <text font-family="Chunky" font-size="40" font-style="italic" font-weight="bold" style="stroke: none; stroke-width: 1; stroke-dasharray: none; stroke-linecap: butt; stroke-linejoin: miter; stroke-miterlimit: 10; fill: #f5cd05; fill-rule: nonzero; opacity: 1;" ><tspan x="-131.12" y="8.98" style="stroke: none; stroke-width: 0; stroke-dasharray: none; stroke-linecap: butt; stroke-linejoin: miter; stroke-miterlimit: 4; fill: #f5cd05; fill-rule: ; opacity: 1;">B</tspan><tspan x="-103.17" y="8.98" style="stroke: none; stroke-width: 0; stroke-dasharray: none; stroke-linecap: butt; stroke-linejoin: miter; stroke-miterlimit: 4; fill: #f5cd05; fill-rule: ; opacity: 1;">e</tspan><tspan x="-77.69" y="8.98" style="stroke: none; stroke-width: 0; stroke-dasharray: none; stroke-linecap: butt; stroke-linejoin: miter; stroke-miterlimit: 4; fill: #f5cd05; fill-rule: ; opacity: 1;">e</tspan><tspan x="-52.2" y="8.98" style="stroke: none; stroke-width: 0; stroke-dasharray: none; stroke-linecap: butt; stroke-linejoin: miter; stroke-miterlimit: 4; fill: #f5cd05; fill-rule: ; opacity: 1;"> </tspan><tspan x="-42.43" y="8.98" style="stroke: none; stroke-width: 0; stroke-dasharray: none; stroke-linecap: butt; stroke-linejoin: miter; stroke-miterlimit: 4; fill: #f5cd05; fill-rule: ; opacity: 1;">s</tspan><tspan x="-11.59" y="8.98" style="stroke: none; stroke-width: 0; stroke-dasharray: none; stroke-linecap: butt; stroke-linejoin: miter; stroke-miterlimit: 4; fill: #f5cd05; fill-rule: ; opacity: 1;">q</tspan><tspan x="16.49" y="8.98" style="stroke: none; stroke-width: 0; stroke-dasharray: none; stroke-linecap: butt; stroke-linejoin: miter; stroke-miterlimit: 4; fill: #f5cd05; fill-rule: ; opacity: 1;">u</tspan><tspan x="43.43" y="8.98" style="stroke: none; stroke-width: 0; stroke-dasharray: none; stroke-linecap: butt; stroke-linejoin: miter; stroke-miterlimit: 4; fill: #f5cd05; fill-rule: ; opacity: 1;">a</tspan><tspan x="69.56" y="8.98" style="stroke: none; stroke-width: 0; stroke-dasharray: none; stroke-linecap: butt; stroke-linejoin: miter; stroke-miterlimit: 4; fill: #f5cd05; fill-rule: ; opacity: 1;">r</tspan><tspan x="95.87" y="8.98" style="stroke: none; stroke-width: 0; stroke-dasharray: none; stroke-linecap: butt; stroke-linejoin: miter; stroke-miterlimit: 4; fill: #f5cd05; fill-rule: ; opacity: 1;">e</tspan><tspan x="121.36" y="8.98" style="stroke: none; stroke-width: 0; stroke-dasharray: none; stroke-linecap: butt; stroke-linejoin: miter; stroke-miterlimit: 4; fill: #f5cd05; fill-rule: ; opacity: 1;"> </tspan></text>
 </g>
  <g transform="translate(279.56 234.49) scale(0.62 0.49)">
   <text font-family="FFF Tusj" font-size="40" font-weight="bold" style="stroke: none; stroke-width: 1; stroke-dasharray: none; stroke-linecap: butt; stroke-linejoin: miter; stroke-miterlimit: 10; fill: #ffffff; fill-rule: nonzero; opacity: 1;" ><tspan x="-74.58" y="8.98" style="stroke: none; stroke-width: 0; stroke-dasharray: none; stroke-linecap: butt; stroke-linejoin: miter; stroke-miterlimit: 4; fill: #ffffff; fill-rule: ; opacity: 1;">k</tspan><tspan x="-50.42" y="8.98" style="stroke: none; stroke-width: 0; stroke-dasharray: none; stroke-linecap: butt; stroke-linejoin: miter; stroke-miterlimit: 4; fill: #ffffff; fill-rule: ; opacity: 1;">i</tspan><tspan x="-37.92" y="8.98" style="stroke: none; stroke-width: 0; stroke-dasharray: none; stroke-linecap: butt; stroke-linejoin: miter; stroke-miterlimit: 4; fill: #ffffff; fill-rule: ; opacity: 1;">t</tspan><tspan x="-22.02" y="8.98" style="stroke: none; stroke-width: 0; stroke-dasharray: none; stroke-linecap: butt; stroke-linejoin: miter; stroke-miterlimit: 4; fill: #ffffff; fill-rule: ; opacity: 1;">c</tspan><tspan x="-0.77" y="8.98" style="stroke: none; stroke-width: 0; stroke-dasharray: none; stroke-linecap: butt; stroke-linejoin: miter; stroke-miterlimit: 4; fill: #ffffff; fill-rule: ; opacity: 1;">h</tspan><tspan x="25.05" y="8.98" style="stroke: none; stroke-width: 0; stroke-dasharray: none; stroke-linecap: butt; stroke-linejoin: miter; stroke-miterlimit: 4; fill: #ffffff; fill-rule: ; opacity: 1;">e</tspan><tspan x="47.92" y="8.98" style="stroke: none; stroke-width: 0; stroke-dasharray: none; stroke-linecap: butt; stroke-linejoin: miter; stroke-miterlimit: 4; fill: #ffffff; fill-rule: ; opacity: 1;">n</tspan></text>
 </g>
</svg>